<svg xmlns="http://www.w3.org/2000/svg" viewBox="0 0 750 1334"><defs><style>.cls-1{font-size:72px;font-family:MyriadPro-Regular, Myriad Pro;}.cls-2{letter-spacing:-0.01em;}.cls-3,.cls-5{fill:#fff;}.cls-3,.cls-4,.cls-5,.cls-6{stroke:#000;stroke-width:9px;}.cls-3,.cls-4,.cls-5,.cls-6,.cls-7{stroke-miterlimit:10;}.cls-4,.cls-6,.cls-7{fill:none;}.cls-4,.cls-5{stroke-linecap:round;}.cls-7{stroke:red;stroke-width:3px;}</style></defs><title>Artboard1</title><g id="Title"><text class="cls-1" transform="translate(275.06 167.06)"><tspan class="cls-2">T</tspan><tspan x="34.92" y="0">imers</tspan></text></g><g id="Timer1"><text class="cls-1" transform="translate(235.54 305.06)">04:00 pm</text><g id="Timer1DeleteBtn"><circle class="cls-3" cx="100" cy="288.75" r="34"/><line class="cls-4" x1="85.5" y1="288.75" x2="114.5" y2="288.75"/></g><g id="Timer1Play"><circle class="cls-3" cx="651" cy="287.75" r="34"/><polygon class="cls-5" points="666.25 287.75 642.75 274.18 642.75 301.32 666.25 287.75"/></g></g><g id="Timer2"><text class="cls-1" transform="translate(249.29 411.56)">00:12:00</text><circle class="cls-6" cx="651" cy="390.25" r="34"/><rect class="cls-4" x="636.32" y="375.57" width="29.36" height="29.36"/><circle class="cls-3" cx="100" cy="391.75" r="34"/><line class="cls-4" x1="85.5" y1="391.75" x2="114.5" y2="391.75"/></g><g id="Timer3"><text class="cls-1" transform="translate(249.29 518.06)">00:00:00</text><rect id="Timer3Done" class="cls-7" x="171.5" y="458.5" width="407" height="69" rx="12" ry="12"/><g id="Timer3Play"><circle class="cls-3" cx="651" cy="492.75" r="34"/><polygon class="cls-5" points="667.25 492.75 643.75 479.18 643.75 506.32 667.25 492.75"/></g><g id="Timer3DeleteBtn"><circle class="cls-3" cx="100" cy="494.75" r="34"/><line class="cls-4" x1="85.5" y1="494.75" x2="114.5" y2="494.75"/></g></g><g id="Add_Timer_Button" data-name="Add Timer Button"><circle class="cls-3" cx="375" cy="758.75" r="53"/><line class="cls-4" x1="353.5" y1="758" x2="396.5" y2="758"/><line class="cls-4" x1="375" y1="738" x2="375" y2="781"/></g></svg>