<svg id="Timer1" xmlns="http://www.w3.org/2000/svg" viewBox="0 0 750 1334"><defs><style>.cls-1{font-size:20.49px;}.cls-1,.cls-9{font-family:HighTowerText-Reg, High Tower Text;}.cls-2,.cls-5{fill:#caab8b;stroke:#c86a3d;}.cls-10,.cls-11,.cls-2,.cls-3,.cls-4,.cls-5{stroke-miterlimit:10;}.cls-2,.cls-3{stroke-width:3px;}.cls-3{fill:#e70054;stroke:#6b503b;stroke-linecap:round;}.cls-4{fill:none;}.cls-10,.cls-11,.cls-4{stroke:#000;}.cls-10,.cls-11,.cls-5{stroke-width:0.5px;}.cls-6,.cls-8{font-size:20.09px;font-family:FranklinGothic-DemiCond, FranklinGothic DemiCond;}.cls-6{fill:#c86a3d;}.cls-7{letter-spacing:0.02em;}.cls-8{fill:#1d1d1b;}.cls-9{font-size:22.38px;}.cls-11{fill:#32ef31;}.cls-12{font-size:93.45px;fill:#0a8f08;font-family:Digital-7Mono, Digital-7 Mono;letter-spacing:0.06em;}</style></defs><title>oven-ui-2020-04-18</title><text class="cls-1" transform="translate(607.13 351.86)">Set</text><g id="SetPlus"><circle class="cls-2" cx="622" cy="302" r="32"/><line class="cls-3" x1="622" y1="287" x2="622" y2="316"/><line class="cls-3" x1="636.5" y1="301.5" x2="607.5" y2="301.5"/></g><g id="SetMinus"><circle class="cls-2" cx="622.5" cy="391.5" r="32"/><line class="cls-3" x1="637.5" y1="391.5" x2="608.5" y2="391.5"/></g><path class="cls-4" d="M660.5,391.5c0,23-17,38-38,38a38,38,0,0,1-38-38c0-21,13-29,13-45S584,322.5,584,302a38.31,38.31,0,0,1,38-38c21,0,38,15.5,38,38s-14.5,28.5-14.5,43.5S660.5,368.5,660.5,391.5Z"/><circle class="cls-5" cx="131.5" cy="302.5" r="42"/><text class="cls-6" transform="translate(98.5 326.09)">On / <tspan class="cls-7" x="40.41" y="0">O</tspan><tspan x="54.57" y="0">ff</tspan></text><text class="cls-8" transform="translate(98.5 326.09)">On / <tspan class="cls-7" x="40.41" y="0">O</tspan><tspan x="54.57" y="0">ff</tspan></text><text class="cls-9" transform="translate(98.25 299.54)">Timer</text><ellipse class="cls-10" cx="164" cy="297" rx="4" ry="11"/><ellipse class="cls-11" cx="164" cy="297" rx="4" ry="11"/><circle class="cls-5" cx="131.5" cy="391.5" r="42"/><text class="cls-9" transform="translate(104.37 398.07)">Mode</text><rect x="235" y="283" width="286" height="109" rx="19" ry="19"/><text class="cls-12" transform="translate(259.32 364.63)">00:00</text><rect class="cls-4" x="70.5" y="238.5" width="622.5" height="210.5" rx="31.33" ry="31.33"/></svg>