<svg xmlns="http://www.w3.org/2000/svg" viewBox="0 0 750 1334"><defs><style>.cls-1{fill:#e9d3c2;}.cls-2{font-size:20.49px;}.cls-2,.cls-7{font-family:HighTowerText-Reg, High Tower Text;}.cls-3,.cls-6{fill:#caab8b;stroke:#c86a3d;}.cls-11,.cls-12,.cls-3,.cls-4,.cls-5,.cls-6{stroke-miterlimit:10;}.cls-3,.cls-4{stroke-width:3px;}.cls-4{fill:#e70054;stroke:#6b503b;stroke-linecap:round;}.cls-5{fill:none;}.cls-11,.cls-12,.cls-5{stroke:#000;}.cls-11,.cls-12,.cls-6{stroke-width:0.5px;}.cls-7{font-size:22.38px;}.cls-10,.cls-8{font-size:20.09px;font-family:FranklinGothic-DemiCond, FranklinGothic DemiCond;}.cls-8{fill:#c86a3d;}.cls-9{letter-spacing:0.02em;}.cls-10{fill:#1d1d1b;}.cls-12{fill:#32ef31;}.cls-13{font-size:93.45px;fill:#0a8f08;font-family:Digital-7Mono, Digital-7 Mono;letter-spacing:0.06em;}</style></defs><title>oven-ui</title><g id="Layer_2" data-name="Layer 2"><rect class="cls-1" x="-0.5" y="0.5" width="750" height="1333"/></g><g id="Layer_4" data-name="Layer 4"><text class="cls-2" transform="translate(607.13 351.86)">Set</text><g id="SetPlus"><circle class="cls-3" cx="622" cy="302" r="32"/><line class="cls-4" x1="622" y1="287" x2="622" y2="316"/><line class="cls-4" x1="636.5" y1="301.5" x2="607.5" y2="301.5"/></g><g id="SetMinus"><circle class="cls-3" cx="622.5" cy="391.5" r="32"/><line class="cls-4" x1="637.5" y1="391.5" x2="608.5" y2="391.5"/></g></g><g id="Layer_5" data-name="Layer 5"><path class="cls-5" d="M660.5,391.5c0,23-17,38-38,38a38,38,0,0,1-38-38c0-21,13-29,13-45S584,322.5,584,302a38.31,38.31,0,0,1,38-38c21,0,38,15.5,38,38s-14.5,28.5-14.5,43.5S660.5,368.5,660.5,391.5Z"/></g><g id="Layer_6" data-name="Layer 6"><circle class="cls-6" cx="131.5" cy="302.5" r="42"/></g><g id="Layer_7" data-name="Layer 7"><text class="cls-7" transform="translate(98.25 299.54)">Timer</text><text class="cls-8" transform="translate(98.5 326.09)">On / <tspan class="cls-9" x="40.41" y="0">O</tspan><tspan x="54.57" y="0">ff</tspan></text><text class="cls-10" transform="translate(98.5 326.09)">On / <tspan class="cls-9" x="40.41" y="0">O</tspan><tspan x="54.57" y="0">ff</tspan></text></g><g id="Layer_11" data-name="Layer 11"><ellipse class="cls-11" cx="164" cy="297" rx="4" ry="11"/></g><g id="Layer_8" data-name="Layer 8"><ellipse class="cls-12" cx="164" cy="297" rx="4" ry="11"/></g><g id="Layer_9" data-name="Layer 9"><circle class="cls-6" cx="131.5" cy="391.5" r="42"/><text class="cls-7" transform="translate(104.37 398.07)">Mode</text></g><g id="Layer_10" data-name="Layer 10"><rect class="cls-5" x="70.5" y="238.5" width="622.5" height="210.5" rx="31.33" ry="31.33"/></g><g id="Layer_3" data-name="Layer 3"><rect x="235" y="283" width="286" height="109" rx="19" ry="19"/></g><g id="TimerText"><text class="cls-13" transform="translate(259.32 364.63)">00:00</text></g></svg>